<svg width="30.000000" height="30.000000" viewBox="0 0 30 30" fill="none" xmlns="http://www.w3.org/2000/svg" xmlns:xlink="http://www.w3.org/1999/xlink">
	<desc>
			Created with Pixso.
	</desc>
	<defs/>
	<circle id="Ellipse 8" cx="15.000000" cy="15.000000" r="15.000000" fill="#F25822" fill-opacity="1.000000"/>
	<g opacity="0.000000">
		<path id="Vector" d="M23 23L7 23L7 7L23 7L23 23Z" fill="#FFFFFF" fill-opacity="1.000000" fill-rule="evenodd"/>
	</g>
	<path id="Vector" d="M18.3333 9.33435C18.3333 9.24597 18.2982 9.16113 18.2357 9.09863C18.1732 9.03613 18.0884 9.00098 18 9.00098L16.3333 9.00098C15.4941 8.95923 14.6724 9.25122 14.0478 9.81335C13.4232 10.3755 13.0465 11.162 13 12.001L13 13.801L11.3333 13.801C11.2449 13.801 11.1602 13.8362 11.0976 13.8987C11.0351 13.9612 11 14.0459 11 14.1344L11 15.8677C11 15.9561 11.0351 16.0409 11.0976 16.1034C11.1602 16.1659 11.2449 16.201 11.3333 16.201L13 16.201L13 20.6677C13 20.7561 13.0351 20.8408 13.0976 20.9034C13.1602 20.9659 13.2449 21.001 13.3333 21.001L15.3333 21.001C15.4218 21.001 15.5065 20.9659 15.569 20.9034C15.6316 20.8408 15.6667 20.7561 15.6667 20.6677L15.6667 16.201L17.4133 16.201C17.4875 16.202 17.5598 16.1783 17.619 16.1337C17.6782 16.0891 17.7207 16.0259 17.74 15.9543L18.22 14.2211C18.2332 14.1718 18.235 14.1201 18.2252 14.0701C18.2154 14.02 18.1942 13.9729 18.1633 13.9324C18.1324 13.8917 18.0926 13.8588 18.0469 13.8361C18.0013 13.8132 17.951 13.8013 17.9 13.801L15.6667 13.801L15.6667 12.001C15.6833 11.8359 15.7607 11.6831 15.884 11.5721C16.0073 11.4612 16.1675 11.4001 16.3333 11.401L18 11.401C18.0884 11.401 18.1732 11.3658 18.2357 11.3033C18.2982 11.2408 18.3333 11.1561 18.3333 11.0676L18.3333 9.33435Z" fill="#FFFFFF" fill-opacity="1.000000" fill-rule="nonzero"/>
</svg>
