<svg width="24.000000" height="24.000000" viewBox="0 0 24 24" fill="none" xmlns="http://www.w3.org/2000/svg" xmlns:xlink="http://www.w3.org/1999/xlink">
	<desc>
			Created with Pixso.
	</desc>
	<defs>
		<filter id="filter_16_3838_dd" x="0.000000" y="0.000000" width="24.000000" height="24.000000" filterUnits="userSpaceOnUse" color-interpolation-filters="sRGB">
			<feFlood flood-opacity="0" result="BackgroundImageFix"/>
			<feColorMatrix in="SourceAlpha" type="matrix" values="0 0 0 0 0 0 0 0 0 0 0 0 0 0 0 0 0 0 127 0" result="hardAlpha"/>
			<feOffset dx="0" dy="4"/>
			<feGaussianBlur stdDeviation="1.33333"/>
			<feComposite in2="hardAlpha" operator="out" k2="-1" k3="1"/>
			<feColorMatrix type="matrix" values="0 0 0 0 0 0 0 0 0 0 0 0 0 0 0 0 0 0 0.25 0"/>
			<feBlend mode="normal" in2="BackgroundImageFix" result="effect_dropShadow_1"/>
			<feBlend mode="normal" in="SourceGraphic" in2="effect_dropShadow_1" result="shape"/>
		</filter>
	</defs>
	<g filter="url(#filter_16_3838_dd)">
		<g opacity="0.000000">
			<path id="Vector" d="M4 0L20 0L20 16L4 16L4 0Z" fill="#AAAAAA" fill-opacity="1.000000" fill-rule="nonzero"/>
		</g>
		<path id="Vector" d="M15.6666 9.3335C15.4714 10.0125 15.0846 10.6207 14.5525 11.0853C14.0204 11.55 13.3656 11.8514 12.6666 11.9535C12.12 12.0327 11.5629 12.0009 11.0289 11.8595C10.4949 11.7181 9.99503 11.4703 9.55917 11.1311C9.12332 10.7917 8.76053 10.3678 8.49261 9.88477C8.22467 9.40173 8.05707 8.86951 7.99994 8.32007C7.95566 7.76855 8.02631 7.21387 8.20743 6.69092C8.38852 6.16809 8.67612 5.68848 9.05206 5.28247C9.42801 4.87646 9.88409 4.55286 10.3915 4.33215C10.8989 4.11145 11.4466 3.99841 11.9999 4.00012C12.5184 4.00085 13.032 4.10046 13.5133 4.29346C13.5891 4.32751 13.6748 4.33203 13.7537 4.30603C13.8326 4.28015 13.899 4.22571 13.9399 4.15344L14.8999 2.38684C14.9206 2.34607 14.933 2.30176 14.9365 2.25623C14.94 2.21069 14.9344 2.16492 14.9202 2.12158C14.9059 2.07825 14.8833 2.03809 14.8535 2.00354C14.8237 1.96899 14.7874 1.94067 14.7466 1.92017C13.7158 1.45337 12.583 1.25671 11.4552 1.34875C10.3274 1.44067 9.24149 1.81824 8.29984 2.44568C7.35818 3.07324 6.5918 3.93018 6.07278 4.93567C5.5538 5.94128 5.29929 7.06238 5.33325 8.19348C5.39896 9.87341 6.08951 11.4683 7.26965 12.6656C8.4498 13.863 10.0345 14.5767 11.7133 14.6667C13.4719 14.7448 15.19 14.124 16.4926 12.9401C17.7953 11.756 18.5768 10.1049 18.6666 8.3468L18.6666 7.01343C18.6649 6.92554 18.6292 6.8418 18.5671 6.77966C18.5049 6.71753 18.4211 6.68188 18.3333 6.68018L12.3333 6.68018C12.2449 6.68018 12.1601 6.71521 12.0976 6.77771C12.0351 6.84033 11.9999 6.92505 11.9999 7.01343L11.9999 9.01343C11.9999 9.10193 12.0351 9.18665 12.0976 9.24915C12.1601 9.31165 12.2449 9.3468 12.3333 9.3468L15.6666 9.3468L15.6666 9.3335Z" fill="#AAAAAA" fill-opacity="1.000000" fill-rule="nonzero"/>
	</g>
</svg>
