<svg width="16.000000" height="16.000000" viewBox="0 0 16 16" fill="none" xmlns="http://www.w3.org/2000/svg" xmlns:xlink="http://www.w3.org/1999/xlink">
	<desc>
			Created with Pixso.
	</desc>
	<defs/>
	<g opacity="0.000000">
		<path id="Vector" d="M16 16L0 16L0 0L16 0L16 16Z" fill="#AAAAAA" fill-opacity="1.000000" fill-rule="evenodd"/>
	</g>
	<path id="Vector" d="M10.0999 5.6001C9.58899 5.59839 9.0827 5.69739 8.61005 5.89148C8.13739 6.08557 7.70764 6.37109 7.3454 6.73145C6.98315 7.0918 6.69553 7.52002 6.49899 7.9917C6.30243 8.46338 6.20084 8.96912 6.19995 9.4801L6.19995 13.4001C6.19995 13.5592 6.26315 13.7119 6.3757 13.8243C6.48822 13.9369 6.64081 14.0001 6.79996 14.0001L8.19995 14.0001C8.35907 14.0001 8.51169 13.9369 8.62421 13.8243C8.73672 13.7119 8.79996 13.5592 8.79996 13.4001L8.79996 9.4801C8.7998 9.29834 8.83798 9.11865 8.91199 8.95264C8.98596 8.78674 9.09409 8.63818 9.22934 8.51672C9.36456 8.39539 9.52386 8.30383 9.69684 8.24817C9.86984 8.19238 10.0526 8.17383 10.2333 8.19348C10.5573 8.23425 10.855 8.39258 11.0701 8.63831C11.2851 8.88403 11.4025 9.2002 11.4 9.52673L11.4 13.4001C11.4 13.5592 11.4632 13.7119 11.5757 13.8243C11.6882 13.9369 11.8408 14.0001 11.9999 14.0001L13.4 14.0001C13.5591 14.0001 13.7117 13.9369 13.8242 13.8243C13.9367 13.7119 13.9999 13.5592 13.9999 13.4001L13.9999 9.4801C13.9991 8.96912 13.8975 8.46338 13.7009 7.9917C13.5044 7.52002 13.2167 7.0918 12.8545 6.73145C12.4923 6.37109 12.0625 6.08557 11.5899 5.89148C11.1172 5.69739 10.6109 5.59839 10.0999 5.6001Z" fill="#AAAAAA" fill-opacity="1.000000" fill-rule="nonzero"/>
	<path id="Vector" d="M2.60001 6.2002L4.39999 6.2002C4.73138 6.2002 5 6.46887 5 6.80017L5 13.4001C5 13.7316 4.73138 14.0002 4.39999 14.0002L2.60001 14.0002C2.26862 14.0002 2 13.7316 2 13.4001L2 6.80017C2 6.46887 2.26862 6.2002 2.60001 6.2002Z" fill="#AAAAAA" fill-opacity="1.000000" fill-rule="evenodd"/>
	<path id="Vector" d="M5 3.5C5 4.32837 4.32843 5 3.5 5C2.67157 5 2 4.32837 2 3.5C2 2.67163 2.67157 2 3.5 2C4.32843 2 5 2.67163 5 3.5Z" fill="#AAAAAA" fill-opacity="1.000000" fill-rule="evenodd"/>
</svg>
