<svg width="12.007935" height="10.668701" viewBox="0 0 12.0079 10.6687" fill="none" xmlns="http://www.w3.org/2000/svg" xmlns:xlink="http://www.w3.org/1999/xlink">
	<desc>
			Created with Pixso.
	</desc>
	<defs/>
	<path id="Vector" d="M3.38425 10.6646C4.37006 10.6975 5.35245 10.5326 6.27341 10.1794C7.19437 9.82629 8.03519 9.29211 8.74619 8.6084C9.45718 7.9248 10.0239 7.10559 10.4129 6.19922C10.8019 5.29272 11.0052 4.31763 11.0109 3.3313C11.4627 2.77222 11.7982 2.12842 11.9976 1.43787C12.0125 1.3833 12.0113 1.32568 11.9941 1.27173C11.977 1.2179 11.9446 1.17004 11.9009 1.13416C11.8573 1.09827 11.8041 1.07568 11.748 1.06921C11.6918 1.06287 11.6349 1.07275 11.5843 1.0979C11.3479 1.21167 11.0818 1.24841 10.8235 1.203C10.5652 1.15759 10.3276 1.03223 10.1443 0.844604C9.91022 0.588257 9.62714 0.381592 9.31174 0.236694C8.99637 0.0919189 8.65512 0.0117188 8.30823 0.0012207C7.96133 -0.00939941 7.61584 0.0498047 7.29221 0.175171C6.9686 0.300659 6.67346 0.489746 6.42426 0.731201C6.08304 1.06165 5.83313 1.47473 5.69879 1.93042C5.56445 2.38599 5.55026 2.86853 5.65759 3.3313C3.42426 3.4646 1.89093 2.40454 0.664246 0.951294C0.627411 0.909546 0.579193 0.879395 0.525513 0.864624C0.471863 0.849854 0.415039 0.850952 0.362 0.86792C0.30899 0.884888 0.262054 0.916992 0.226929 0.960205C0.191803 1.00342 0.170044 1.05591 0.164246 1.11121C-0.0694275 2.40747 0.0991516 3.74426 0.647339 4.94202C1.19553 6.13965 2.09708 7.14087 3.23093 7.81128C2.47067 8.68311 1.40305 9.22766 0.250916 9.3313C0.189209 9.34143 0.132202 9.37073 0.0879517 9.41504C0.0437012 9.45923 0.0143738 9.51611 0.00408936 9.57788C-0.00619507 9.63965 0.00305176 9.703 0.0305786 9.75916C0.0581055 9.81543 0.102509 9.86157 0.157593 9.89124C1.15994 10.3922 2.26373 10.6567 3.38425 10.6646Z" fill="#AAAAAA" fill-opacity="1.000000" fill-rule="nonzero"/>
</svg>
