<svg width="100.000000" height="100.000000" viewBox="0 0 100 100" fill="none" xmlns="http://www.w3.org/2000/svg" xmlns:xlink="http://www.w3.org/1999/xlink">
	<desc>
			Created with Pixso.
	</desc>
	<defs/>
	<circle id="Ellipse 3" cx="50.000000" cy="50.000000" r="50.000000" fill="#BDE0BC" fill-opacity="1.000000"/>
	<g opacity="0.000000">
		<path id="Vector" d="M30 30L70 30L70 70L30 70L30 30Z" fill="#149211" fill-opacity="1.000000" fill-rule="evenodd"/>
	</g>
	<path id="Vector" d="M61.6666 36.6667L38.3333 36.6667C37.0072 36.6667 35.7355 37.1935 34.7978 38.1312C33.8601 39.0689 33.3333 40.3406 33.3333 41.6667L33.3333 58.3334C33.3333 59.6595 33.8601 60.9313 34.7978 61.869C35.7355 62.8066 37.0072 63.3334 38.3333 63.3334L61.6666 63.3334C62.9927 63.3334 64.2645 62.8066 65.2022 61.869C66.1399 60.9313 66.6666 59.6595 66.6666 58.3334L66.6666 41.6667C66.6666 40.3406 66.1399 39.0689 65.2022 38.1312C64.2645 37.1935 62.9927 36.6667 61.6666 36.6667ZM60.55 40.0001L50 47.9167L39.45 40.0001L60.55 40.0001ZM61.6666 60.0001L38.3333 60.0001C37.8913 60.0001 37.4674 59.8245 37.1548 59.5119C36.8422 59.1993 36.6666 58.7755 36.6666 58.3334L36.6666 42.0834L49 51.3334C49.2885 51.5498 49.6394 51.6667 50 51.6667C50.3606 51.6667 50.7115 51.5498 51 51.3334L63.3333 42.0834L63.3333 58.3334C63.3333 58.7755 63.1577 59.1993 62.8452 59.5119C62.5326 59.8245 62.1087 60.0001 61.6666 60.0001Z" fill="#149211" fill-opacity="1.000000" fill-rule="nonzero"/>
</svg>
