<svg width="100.000000" height="100.000000" viewBox="0 0 100 100" fill="none" xmlns="http://www.w3.org/2000/svg" xmlns:xlink="http://www.w3.org/1999/xlink">
	<desc>
			Created with Pixso.
	</desc>
	<defs/>
	<circle id="Ellipse 3" cx="50.000000" cy="50.000000" r="50.000000" fill="#FFF3C9" fill-opacity="1.000000"/>
	<g opacity="0.000000">
		<path id="Vector" d="M30 30L70 30L70 70L30 70L30 30Z" fill="#FFC700" fill-opacity="1.000000" fill-rule="evenodd"/>
	</g>
	<path id="Vector" d="M51.6667 33.3335C51.2246 33.3335 50.8007 33.5091 50.4882 33.8217C50.1756 34.1342 50 34.5581 50 35.0002L50 48.3335C50 48.7755 50.1756 49.1995 50.4882 49.512C50.8007 49.8246 51.2246 50.0002 51.6667 50.0002L65 50.0002C65.442 50.0002 65.866 49.8246 66.1785 49.512C66.4911 49.1995 66.6667 48.7755 66.6667 48.3335C66.6667 44.3552 65.0863 40.5399 62.2733 37.7269C59.4602 34.9138 55.6449 33.3335 51.6667 33.3335ZM53.3333 46.6668L53.3333 36.7835C55.827 37.1428 58.1374 38.2998 59.9189 40.0813C61.7004 41.8628 62.8573 44.1732 63.2167 46.6668L53.3333 46.6668Z" fill="#FFC700" fill-opacity="1.000000" fill-rule="nonzero"/>
	<path id="Vector" d="M64.7 53.4332C64.4932 53.3593 64.2738 53.327 64.0545 53.3381C63.8352 53.3492 63.6202 53.4036 63.422 53.4981C63.2237 53.5925 63.0461 53.7253 62.8993 53.8886C62.7525 54.0519 62.6395 54.2427 62.5667 54.4499C61.8156 56.5731 60.5389 58.4714 58.8558 59.9678C57.1727 61.4642 55.1379 62.5099 52.9414 63.0073C50.7449 63.5047 48.4582 63.4376 46.2946 62.8123C44.131 62.187 42.1611 61.0238 40.5686 59.4313C38.9761 57.8388 37.8129 55.8689 37.1876 53.7053C36.5623 51.5417 36.4952 49.255 36.9926 47.0585C37.49 44.8619 38.5356 42.8272 40.032 41.1441C41.5284 39.4609 43.4268 38.1843 45.55 37.4332C45.9677 37.2874 46.3104 36.9815 46.5026 36.583C46.6948 36.1845 46.7209 35.726 46.575 35.3082C46.4291 34.8905 46.1233 34.5479 45.7248 34.3556C45.3263 34.1634 44.8677 34.1373 44.45 34.2832C41.7951 35.2212 39.421 36.8165 37.5495 38.9202C35.678 41.024 34.37 43.5676 33.7475 46.3137C33.1251 49.0598 33.2085 51.9188 33.9901 54.624C34.7716 57.329 36.2257 59.7921 38.2168 61.7831C40.2078 63.7742 42.6708 65.2283 45.3759 66.0098C48.081 66.7913 50.9401 66.8748 53.6861 66.2523C56.4322 65.6299 58.9759 64.3219 61.0796 62.4504C63.1834 60.5789 64.7787 58.2048 65.7167 55.5499C65.8608 55.1343 65.8348 54.6786 65.6444 54.2821C65.4539 53.8856 65.1145 53.5804 64.7 53.4332Z" fill="#FFC700" fill-opacity="1.000000" fill-rule="nonzero"/>
</svg>
