<svg width="100.000000" height="100.000000" viewBox="0 0 100 100" fill="none" xmlns="http://www.w3.org/2000/svg" xmlns:xlink="http://www.w3.org/1999/xlink">
	<desc>
			Created with Pixso.
	</desc>
	<defs/>
	<circle id="Ellipse 3" cx="50.000000" cy="50.000000" r="50.000000" fill="#FCD5C8" fill-opacity="1.000000"/>
	<g opacity="0.000000">
		<path id="Vector" d="M70 70L30 70L30 30L70 30L70 70Z" fill="#F25822" fill-opacity="1.000000" fill-rule="evenodd"/>
	</g>
	<path id="Vector" d="M66.6666 49.9999C66.6666 47.8112 66.2355 45.644 65.398 43.6219C64.5604 41.5998 63.3327 39.7625 61.7851 38.2148C60.2374 36.6672 58.4001 35.4395 56.378 34.6019C54.3559 33.7643 52.1887 33.3333 50 33.3333C45.5797 33.3333 41.3405 35.0892 38.2149 38.2148C35.0893 41.3404 33.3333 45.5797 33.3333 49.9999C33.3333 54.4202 35.0893 58.6594 38.2149 61.785C41.3405 64.9106 45.5797 66.6666 50 66.6666C54.4203 66.6666 58.6595 64.9106 61.7851 61.785C64.9107 58.6594 66.6666 54.4202 66.6666 49.9999ZM63.2166 48.3333L58.3333 48.3333C58.0584 44.4135 56.7154 40.6439 54.45 37.4332C56.7774 38.2599 58.8295 39.7167 60.3775 41.6413C61.9254 43.5659 62.9083 45.8827 63.2166 48.3333ZM45.1333 51.6666L55 51.6666C54.5735 55.7842 52.8184 59.6512 50 62.6832C47.1834 59.6639 45.4686 55.782 45.1333 51.6666ZM45.1333 48.3333C45.5215 44.2363 47.2293 40.3761 50 37.3333C52.8412 40.3434 54.6002 44.2133 55 48.3333L45.1333 48.3333ZM45.7333 37.3832C43.4559 40.6116 42.0913 44.3945 41.7833 48.3333L36.7833 48.3333C37.0982 45.8524 38.1043 43.5101 39.6869 41.5739C41.2695 39.6376 43.3647 38.1855 45.7333 37.3832ZM36.7833 51.6666L41.7833 51.6666C42.0578 55.6021 43.4131 59.3854 45.7 62.5999C43.3399 61.7938 41.2533 60.3419 39.6771 58.4092C38.1009 56.4766 37.0983 54.1405 36.7833 51.6666ZM54.3666 62.5833C56.6473 59.3677 58.0177 55.5962 58.3333 51.6666L63.25 51.6666C62.9348 54.1337 61.9359 56.4634 60.3661 58.3925C58.7962 60.3217 56.7182 61.7732 54.3666 62.5833Z" fill="#F25822" fill-opacity="1.000000" fill-rule="nonzero"/>
</svg>
