<svg width="139.000000" height="44.000000" viewBox="0 0 139 44" fill="none" xmlns="http://www.w3.org/2000/svg" xmlns:xlink="http://www.w3.org/1999/xlink">
	<desc>
			Created with Pixso.
	</desc>
	<defs/>
	<path id="Vector" d="M138.5 0.5L138.5 43.5L0.5 43.5L0.5 0.5L138.5 0.5Z" stroke="#FFFFFF" stroke-opacity="1.000000" stroke-width="1.000000" stroke-linejoin="round"/>
	<path id="Vector" d="M34.9521 34.2661L34.8398 34.2661C34.2307 34.2661 33.7189 33.7666 33.6747 33.1289C33.6302 32.4602 34.1187 31.8779 34.7638 31.834C34.7892 31.8325 34.8157 31.8315 34.8418 31.8315C35.4587 31.8315 35.9756 32.3213 36.0214 32.9482C36.0332 33.1968 35.9927 33.5508 35.7372 33.8433L35.7312 33.8501L35.7255 33.8569C35.5288 34.0908 35.262 34.2314 34.9521 34.2661ZM21.2201 34.2598C20.5696 34.2598 20.0403 33.7168 20.0403 33.0496C20.0403 32.3828 20.5696 31.8401 21.2201 31.8401C21.8706 31.8401 22.3999 32.3828 22.3999 33.0496C22.3999 33.7168 21.8706 34.2598 21.2201 34.2598Z" fill="#FFFFFF" fill-opacity="1.000000" fill-rule="nonzero"/>
	<path id="Vector" d="M34.8765 33.2661C34.9215 33.2549 34.9429 33.2339 34.9604 33.2129C34.9683 33.2036 34.9761 33.1946 34.9839 33.1855C35.0205 33.1438 35.0237 33.0552 35.0229 33.0105C35.0098 32.9043 34.9189 32.8315 34.8417 32.8315C34.8379 32.8315 34.8341 32.8315 34.8318 32.8318C34.7537 32.8372 34.6658 32.9409 34.6724 33.0625C34.6818 33.1792 34.7679 33.2661 34.8397 33.2661L34.8765 33.2661ZM21.22 33.2598C21.3192 33.2598 21.3999 33.1655 21.3999 33.0496C21.3999 32.9341 21.3192 32.8401 21.22 32.8401C21.1208 32.8401 21.0403 32.9341 21.0403 33.0496C21.0403 33.1655 21.1208 33.2598 21.22 33.2598ZM35 35.2661C34.9521 35.2661 34.8883 35.2661 34.8397 35.2661C33.7021 35.2661 32.7571 34.3545 32.677 33.198C32.5969 31.9929 33.4941 30.9185 34.6958 30.8364C34.7446 30.833 34.7933 30.8315 34.8417 30.8315C35.9805 30.8315 36.9419 31.7324 37.0195 32.8884C37.051 33.4915 36.8746 34.061 36.4902 34.5012C36.106 34.9575 35.5769 35.2178 35 35.2661ZM21.22 35.2598C20.0159 35.2598 19.0403 34.271 19.0403 33.0496C19.0403 31.8291 20.0159 30.8401 21.22 30.8401C22.4242 30.8401 23.3999 31.8291 23.3999 33.0496C23.3999 34.271 22.4242 35.2598 21.22 35.2598ZM34.199 28.3938L22.1335 28.3938C21.7007 28.3938 21.3164 28.1006 21.2039 27.6775L17.2781 13.2476L14.5222 13.2476C13.9939 13.2476 13.561 12.8086 13.561 12.2705C13.561 11.7329 13.9939 11.293 14.5222 11.293L17.9998 11.293C18.4319 11.293 18.8162 11.5864 18.9286 12.0103L22.8545 26.439L33.5581 26.439L37.115 18.1338L25.2583 18.1338C24.7291 18.1338 24.2961 17.6938 24.2961 17.1565C24.2961 16.6191 24.7291 16.1792 25.2583 16.1792L38.5891 16.1792C38.9095 16.1792 39.2146 16.3418 39.3901 16.6191C39.5665 16.8955 39.5989 17.2373 39.4702 17.5469L35.0801 27.8071C34.9198 28.1653 34.5833 28.3938 34.199 28.3938Z" fill="#FFFFFF" fill-opacity="1.000000" fill-rule="nonzero"/>
	<path id="Vector" d="M34.8765 33.2661C34.9215 33.2549 34.9429 33.2339 34.9604 33.2129C34.9683 33.2036 34.9761 33.1946 34.9839 33.1855C35.0205 33.1438 35.0237 33.0552 35.0229 33.0105C35.0098 32.9043 34.9189 32.8315 34.8417 32.8315C34.8379 32.8315 34.8341 32.8315 34.8318 32.8318C34.7537 32.8372 34.6658 32.9409 34.6724 33.0625C34.6818 33.1792 34.7679 33.2661 34.8397 33.2661L34.8765 33.2661ZM21.22 33.2598C21.3192 33.2598 21.3999 33.1655 21.3999 33.0496C21.3999 32.9341 21.3192 32.8401 21.22 32.8401C21.1208 32.8401 21.0403 32.9341 21.0403 33.0496C21.0403 33.1655 21.1208 33.2598 21.22 33.2598ZM35 35.2661C34.9521 35.2661 34.8883 35.2661 34.8397 35.2661C33.7021 35.2661 32.7571 34.3545 32.677 33.198C32.5969 31.9929 33.4941 30.9185 34.6958 30.8364C34.7446 30.833 34.7933 30.8315 34.8417 30.8315C35.9805 30.8315 36.9419 31.7324 37.0195 32.8884C37.051 33.4915 36.8746 34.061 36.4902 34.5012C36.106 34.9575 35.5769 35.2178 35 35.2661ZM21.22 35.2598C20.0159 35.2598 19.0403 34.271 19.0403 33.0496C19.0403 31.8291 20.0159 30.8401 21.22 30.8401C22.4242 30.8401 23.3999 31.8291 23.3999 33.0496C23.3999 34.271 22.4242 35.2598 21.22 35.2598ZM34.199 28.3938L22.1335 28.3938C21.7007 28.3938 21.3164 28.1006 21.2039 27.6775L17.2781 13.2476L14.5222 13.2476C13.9939 13.2476 13.561 12.8086 13.561 12.2705C13.561 11.7329 13.9939 11.293 14.5222 11.293L17.9998 11.293C18.4319 11.293 18.8162 11.5864 18.9286 12.0103L22.8545 26.439L33.5581 26.439L37.115 18.1338L25.2583 18.1338C24.7291 18.1338 24.2961 17.6938 24.2961 17.1565C24.2961 16.6191 24.7291 16.1792 25.2583 16.1792L38.5891 16.1792C38.9095 16.1792 39.2146 16.3418 39.3901 16.6191C39.5665 16.8955 39.5989 17.2373 39.4702 17.5469L35.0801 27.8071C34.9198 28.1653 34.5833 28.3938 34.199 28.3938Z" fill="#FFFFFF" fill-opacity="1.000000" fill-rule="nonzero"/>
	<path id="Add to Cart" d="M57.201 24.4289L55.626 20.3479C55.5794 20.2265 55.5303 20.0865 55.479 19.9279C55.4277 19.7645 55.3787 19.5919 55.332 19.4099C55.234 19.7879 55.1337 20.1029 55.031 20.3549L53.456 24.4289L57.201 24.4289ZM60.029 28.1529L58.979 28.1529C58.8577 28.1529 58.7597 28.1225 58.685 28.0619C58.6104 28.0012 58.5544 27.9242 58.517 27.8309L57.579 25.4089L53.078 25.4089L52.14 27.8309C52.112 27.9149 52.0583 27.9895 51.979 28.0549C51.8997 28.1202 51.8017 28.1529 51.685 28.1529L50.635 28.1529L54.646 18.1219L56.018 18.1219L60.029 28.1529ZM65.5242 22.7489C65.2909 22.4362 65.0389 22.2192 64.7682 22.0979C64.4976 21.9719 64.1942 21.9089 63.8582 21.9089C63.2002 21.9089 62.6939 22.1445 62.3392 22.6159C61.9846 23.0872 61.8072 23.7592 61.8072 24.6319C61.8072 25.0939 61.8469 25.4905 61.9262 25.8219C62.0056 26.1485 62.1222 26.4192 62.2762 26.6339C62.4302 26.8439 62.6192 26.9979 62.8432 27.0959C63.0672 27.1939 63.3216 27.2429 63.6062 27.2429C64.0169 27.2429 64.3739 27.1495 64.6772 26.9629C64.9852 26.7762 65.2676 26.5125 65.5242 26.1719L65.5242 22.7489ZM66.7702 17.8419L66.7702 28.1529L66.0282 28.1529C65.8509 28.1529 65.7389 28.0665 65.6922 27.8939L65.5802 27.0329C65.2769 27.3969 64.9316 27.6909 64.5442 27.9149C64.1569 28.1389 63.7089 28.2509 63.2002 28.2509C62.7942 28.2509 62.4256 28.1739 62.0942 28.0199C61.7629 27.8612 61.4806 27.6302 61.2472 27.3269C61.0139 27.0235 60.8342 26.6455 60.7082 26.1929C60.5822 25.7402 60.5192 25.2199 60.5192 24.6319C60.5192 24.1092 60.5892 23.6239 60.7292 23.1759C60.8692 22.7232 61.0699 22.3312 61.3312 21.9999C61.5926 21.6685 61.9122 21.4095 62.2902 21.2229C62.6729 21.0315 63.1022 20.9359 63.5782 20.9359C64.0122 20.9359 64.3832 21.0105 64.6912 21.1599C65.0039 21.3045 65.2816 21.5075 65.5242 21.7689L65.5242 17.8419L66.7702 17.8419ZM73.3582 22.7489C73.1249 22.4362 72.8729 22.2192 72.6022 22.0979C72.3316 21.9719 72.0282 21.9089 71.6922 21.9089C71.0342 21.9089 70.5279 22.1445 70.1732 22.6159C69.8186 23.0872 69.6412 23.7592 69.6412 24.6319C69.6412 25.0939 69.6809 25.4905 69.7602 25.8219C69.8396 26.1485 69.9562 26.4192 70.1102 26.6339C70.2642 26.8439 70.4532 26.9979 70.6772 27.0959C70.9012 27.1939 71.1556 27.2429 71.4402 27.2429C71.8509 27.2429 72.2079 27.1495 72.5112 26.9629C72.8192 26.7762 73.1016 26.5125 73.3582 26.1719L73.3582 22.7489ZM74.6042 17.8419L74.6042 28.1529L73.8622 28.1529C73.6849 28.1529 73.5729 28.0665 73.5262 27.8939L73.4142 27.0329C73.1109 27.3969 72.7656 27.6909 72.3782 27.9149C71.9909 28.1389 71.5429 28.2509 71.0342 28.2509C70.6282 28.2509 70.2596 28.1739 69.9282 28.0199C69.5969 27.8612 69.3146 27.6302 69.0812 27.3269C68.8479 27.0235 68.6682 26.6455 68.5422 26.1929C68.4162 25.7402 68.3532 25.2199 68.3532 24.6319C68.3532 24.1092 68.4232 23.6239 68.5632 23.1759C68.7032 22.7232 68.9039 22.3312 69.1652 21.9999C69.4266 21.6685 69.7462 21.4095 70.1242 21.2229C70.5069 21.0315 70.9362 20.9359 71.4122 20.9359C71.8462 20.9359 72.2172 21.0105 72.5252 21.1599C72.8379 21.3045 73.1156 21.5075 73.3582 21.7689L73.3582 17.8419L74.6042 17.8419ZM82.3312 28.2649C81.7712 28.2649 81.3396 28.1085 81.0362 27.7959C80.7376 27.4832 80.5882 27.0329 80.5882 26.4449L80.5882 22.1049L79.7342 22.1049C79.6596 22.1049 79.5966 22.0839 79.5452 22.0419C79.4939 21.9952 79.4682 21.9252 79.4682 21.8319L79.4682 21.3349L80.6302 21.1879L80.9172 18.9969C80.9312 18.9269 80.9616 18.8709 81.0082 18.8289C81.0596 18.7822 81.1249 18.7589 81.2042 18.7589L81.8342 18.7589L81.8342 21.2019L83.8852 21.2019L83.8852 22.1049L81.8342 22.1049L81.8342 26.3609C81.8342 26.6595 81.9066 26.8812 82.0512 27.0259C82.1959 27.1705 82.3826 27.2429 82.6112 27.2429C82.7419 27.2429 82.8539 27.2265 82.9472 27.1939C83.0452 27.1565 83.1292 27.1169 83.1992 27.0749C83.2692 27.0329 83.3276 26.9955 83.3742 26.9629C83.4256 26.9255 83.4699 26.9069 83.5072 26.9069C83.5726 26.9069 83.6309 26.9465 83.6822 27.0259L84.0462 27.6209C83.8316 27.8215 83.5726 27.9802 83.2692 28.0969C82.9659 28.2089 82.6532 28.2649 82.3312 28.2649ZM88.1198 20.9499C88.6378 20.9499 89.1045 21.0362 89.5198 21.2089C89.9351 21.3815 90.2898 21.6265 90.5838 21.9439C90.8778 22.2612 91.1018 22.6462 91.2558 23.0989C91.4145 23.5469 91.4938 24.0485 91.4938 24.6039C91.4938 25.1639 91.4145 25.6679 91.2558 26.1159C91.1018 26.5639 90.8778 26.9465 90.5838 27.2639C90.2898 27.5812 89.9351 27.8262 89.5198 27.9989C89.1045 28.1669 88.6378 28.2509 88.1198 28.2509C87.5971 28.2509 87.1258 28.1669 86.7058 27.9989C86.2905 27.8262 85.9358 27.5812 85.6418 27.2639C85.3478 26.9465 85.1215 26.5639 84.9628 26.1159C84.8088 25.6679 84.7318 25.1639 84.7318 24.6039C84.7318 24.0485 84.8088 23.5469 84.9628 23.0989C85.1215 22.6462 85.3478 22.2612 85.6418 21.9439C85.9358 21.6265 86.2905 21.3815 86.7058 21.2089C87.1258 21.0362 87.5971 20.9499 88.1198 20.9499ZM88.1198 27.2779C88.8198 27.2779 89.3425 27.0445 89.6878 26.5779C90.0331 26.1065 90.2058 25.4509 90.2058 24.6109C90.2058 23.7662 90.0331 23.1082 89.6878 22.6369C89.3425 22.1655 88.8198 21.9299 88.1198 21.9299C87.7651 21.9299 87.4548 21.9905 87.1888 22.1119C86.9275 22.2332 86.7081 22.4082 86.5308 22.6369C86.3581 22.8655 86.2275 23.1479 86.1388 23.4839C86.0548 23.8152 86.0128 24.1909 86.0128 24.6109C86.0128 25.4509 86.1855 26.1065 86.5308 26.5779C86.8808 27.0445 87.4105 27.2779 88.1198 27.2779ZM103.992 26.0809C104.067 26.0809 104.132 26.1112 104.188 26.1719L104.727 26.7529C104.317 27.2289 103.817 27.5999 103.229 27.8659C102.646 28.1319 101.939 28.2649 101.108 28.2649C100.39 28.2649 99.7362 28.1412 99.1482 27.8939C98.5602 27.6419 98.0585 27.2919 97.6432 26.8439C97.2279 26.3912 96.9059 25.8499 96.6772 25.2199C96.4485 24.5899 96.3342 23.8969 96.3342 23.1409C96.3342 22.3849 96.4532 21.6919 96.6912 21.0619C96.9292 20.4319 97.2629 19.8905 97.6922 19.4379C98.1262 18.9852 98.6442 18.6352 99.2462 18.3879C99.8482 18.1359 100.513 18.0099 101.241 18.0099C101.955 18.0099 102.585 18.1242 103.131 18.3529C103.677 18.5815 104.158 18.8919 104.573 19.2839L104.125 19.9069C104.097 19.9535 104.06 19.9932 104.013 20.0259C103.971 20.0539 103.913 20.0679 103.838 20.0679C103.754 20.0679 103.652 20.0235 103.53 19.9349C103.409 19.8415 103.25 19.7389 103.054 19.6269C102.858 19.5149 102.613 19.4145 102.319 19.3259C102.025 19.2325 101.664 19.1859 101.234 19.1859C100.716 19.1859 100.243 19.2769 99.8132 19.4589C99.3839 19.6362 99.0129 19.8952 98.7002 20.2359C98.3922 20.5765 98.1519 20.9919 97.9792 21.4819C97.8065 21.9719 97.7202 22.5249 97.7202 23.1409C97.7202 23.7662 97.8089 24.3239 97.9862 24.8139C98.1682 25.3039 98.4132 25.7192 98.7212 26.0599C99.0339 26.3959 99.4002 26.6525 99.8202 26.8299C100.245 27.0072 100.702 27.0959 101.192 27.0959C101.491 27.0959 101.759 27.0795 101.997 27.0469C102.24 27.0095 102.462 26.9535 102.662 26.8789C102.868 26.8042 103.057 26.7109 103.229 26.5989C103.407 26.4822 103.582 26.3445 103.754 26.1859C103.834 26.1159 103.913 26.0809 103.992 26.0809ZM109.851 24.9609C109.277 24.9795 108.787 25.0262 108.381 25.1009C107.979 25.1709 107.65 25.2642 107.394 25.3809C107.142 25.4975 106.957 25.6352 106.841 25.7939C106.729 25.9525 106.673 26.1299 106.673 26.3259C106.673 26.5125 106.703 26.6735 106.764 26.8089C106.824 26.9442 106.906 27.0562 107.009 27.1449C107.116 27.2289 107.24 27.2919 107.38 27.3339C107.524 27.3712 107.678 27.3899 107.842 27.3899C108.061 27.3899 108.262 27.3689 108.444 27.3269C108.626 27.2802 108.796 27.2149 108.955 27.1309C109.118 27.0469 109.272 26.9465 109.417 26.8299C109.566 26.7132 109.711 26.5802 109.851 26.4309L109.851 24.9609ZM105.826 22.0629C106.218 21.6849 106.64 21.4025 107.093 21.2159C107.545 21.0292 108.047 20.9359 108.598 20.9359C108.994 20.9359 109.347 21.0012 109.655 21.1319C109.963 21.2625 110.222 21.4445 110.432 21.6779C110.642 21.9112 110.8 22.1935 110.908 22.5249C111.015 22.8562 111.069 23.2202 111.069 23.6169L111.069 28.1529L110.516 28.1529C110.394 28.1529 110.301 28.1342 110.236 28.0969C110.17 28.0549 110.119 27.9755 110.082 27.8589L109.942 27.1869C109.755 27.3595 109.573 27.5135 109.396 27.6489C109.218 27.7795 109.032 27.8915 108.836 27.9849C108.64 28.0735 108.43 28.1412 108.206 28.1879C107.986 28.2392 107.741 28.2649 107.471 28.2649C107.195 28.2649 106.936 28.2275 106.694 28.1529C106.451 28.0735 106.239 27.9569 106.057 27.8029C105.879 27.6489 105.737 27.4552 105.63 27.2219C105.527 26.9839 105.476 26.7039 105.476 26.3819C105.476 26.1019 105.553 25.8335 105.707 25.5769C105.861 25.3155 106.11 25.0845 106.456 24.8839C106.801 24.6832 107.251 24.5199 107.807 24.3939C108.362 24.2632 109.043 24.1885 109.851 24.1699L109.851 23.6169C109.851 23.0662 109.732 22.6509 109.494 22.3709C109.256 22.0862 108.908 21.9439 108.451 21.9439C108.143 21.9439 107.884 21.9835 107.674 22.0629C107.468 22.1375 107.289 22.2239 107.135 22.3219C106.985 22.4152 106.855 22.5015 106.743 22.5809C106.635 22.6555 106.528 22.6929 106.421 22.6929C106.337 22.6929 106.264 22.6719 106.204 22.6299C106.143 22.5832 106.092 22.5272 106.05 22.4619L105.826 22.0629ZM114.15 22.4829C114.374 21.9975 114.649 21.6195 114.976 21.3489C115.302 21.0735 115.701 20.9359 116.173 20.9359C116.322 20.9359 116.464 20.9522 116.6 20.9849C116.74 21.0175 116.863 21.0689 116.971 21.1389L116.88 22.0699C116.852 22.1865 116.782 22.2449 116.67 22.2449C116.604 22.2449 116.509 22.2309 116.383 22.2029C116.257 22.1749 116.114 22.1609 115.956 22.1609C115.732 22.1609 115.531 22.1935 115.354 22.2589C115.181 22.3242 115.025 22.4222 114.885 22.5529C114.749 22.6789 114.626 22.8375 114.514 23.0289C114.406 23.2155 114.308 23.4302 114.22 23.6729L114.22 28.1529L112.967 28.1529L112.967 21.0619L113.681 21.0619C113.816 21.0619 113.909 21.0875 113.961 21.1389C114.012 21.1902 114.047 21.2789 114.066 21.4049L114.15 22.4829ZM120.243 28.2649C119.683 28.2649 119.252 28.1085 118.948 27.7959C118.65 27.4832 118.5 27.0329 118.5 26.4449L118.5 22.1049L117.646 22.1049C117.572 22.1049 117.509 22.0839 117.457 22.0419C117.406 21.9952 117.38 21.9252 117.38 21.8319L117.38 21.3349L118.542 21.1879L118.829 18.9969C118.843 18.9269 118.874 18.8709 118.92 18.8289C118.972 18.7822 119.037 18.7589 119.116 18.7589L119.746 18.7589L119.746 21.2019L121.797 21.2019L121.797 22.1049L119.746 22.1049L119.746 26.3609C119.746 26.6595 119.819 26.8812 119.963 27.0259C120.108 27.1705 120.295 27.2429 120.523 27.2429C120.654 27.2429 120.766 27.2265 120.859 27.1939C120.957 27.1565 121.041 27.1169 121.111 27.0749C121.181 27.0329 121.24 26.9955 121.286 26.9629C121.338 26.9255 121.382 26.9069 121.419 26.9069C121.485 26.9069 121.543 26.9465 121.594 27.0259L121.958 27.6209C121.744 27.8215 121.485 27.9802 121.181 28.0969C120.878 28.2089 120.565 28.2649 120.243 28.2649Z" fill="#FFFFFF" fill-opacity="1.000000" fill-rule="evenodd"/>
</svg>
