<svg width="14.899048" height="17.000000" viewBox="0 0 14.899 17" fill="none" xmlns="http://www.w3.org/2000/svg" xmlns:xlink="http://www.w3.org/1999/xlink">
	<desc>
			Created with Pixso.
	</desc>
	<defs>
		<clipPath id="clip190_1610">
			<rect id="instagram-brands 1" width="14.899101" height="17.000000" fill="white" fill-opacity="0"/>
		</clipPath>
	</defs>
	<rect id="instagram-brands 1" width="14.899101" height="17.000000" fill="#FFFFFF" fill-opacity="0"/>
	<g clip-path="url(#clip190_1610)">
		<path id="Vector" d="M7.45276 4.68158C5.33765 4.68158 3.63159 6.38492 3.63159 8.49664C3.63159 10.6083 5.33765 12.3117 7.45276 12.3117C9.56799 12.3117 11.274 10.6083 11.274 8.49664C11.274 6.38492 9.56799 4.68158 7.45276 4.68158ZM7.45276 10.9769C6.08594 10.9769 4.96851 9.86459 4.96851 8.49664C4.96851 7.12866 6.08264 6.01636 7.45276 6.01636C8.823 6.01636 9.93713 7.12866 9.93713 8.49664C9.93713 9.86459 8.8197 10.9769 7.45276 10.9769ZM12.3217 4.52554C12.3217 5.02026 11.9225 5.41537 11.4303 5.41537C10.9348 5.41537 10.5391 5.01694 10.5391 4.52554C10.5391 4.03412 10.9381 3.63568 11.4303 3.63568C11.9225 3.63568 12.3217 4.03412 12.3217 4.52554ZM14.8524 5.42865C14.7959 4.23666 14.5232 3.18082 13.6486 2.31088C12.7772 1.44098 11.7197 1.1687 10.5258 1.10895C9.29529 1.03922 5.60706 1.03922 4.37659 1.10895C3.18591 1.16537 2.12842 1.43765 1.25366 2.30756C0.379028 3.17749 0.109619 4.23334 0.0498047 5.42535C-0.0200195 6.65387 -0.0200195 10.3361 0.0498047 11.5646C0.106323 12.7566 0.379028 13.8124 1.25366 14.6824C2.12842 15.5523 3.18262 15.8246 4.37659 15.8843C5.60706 15.954 9.29529 15.954 10.5258 15.8843C11.7197 15.8279 12.7772 15.5556 13.6486 14.6824C14.5199 13.8124 14.7926 12.7566 14.8524 11.5646C14.9224 10.3361 14.9224 6.65717 14.8524 5.42865ZM13.2628 12.8828C13.0034 13.5335 12.5012 14.0349 11.8461 14.2972C10.865 14.6857 8.53699 14.596 7.45276 14.596C6.36865 14.596 4.03735 14.6824 3.05957 14.2972C2.40771 14.0382 1.90552 13.5369 1.64282 12.8828C1.25366 11.9033 1.34351 9.57904 1.34351 8.49664C1.34351 7.41422 1.25708 5.08667 1.64282 4.1105C1.90222 3.45972 2.40442 2.95834 3.05957 2.69604C4.04065 2.30756 6.36865 2.39722 7.45276 2.39722C8.53699 2.39722 10.8683 2.31088 11.8461 2.69604C12.4979 2.95502 13.0001 3.45639 13.2628 4.1105C13.6519 5.09 13.5621 7.41422 13.5621 8.49664C13.5621 9.57904 13.6519 11.9066 13.2628 12.8828Z" fill="#000000" fill-opacity="1.000000" fill-rule="nonzero"/>
	</g>
</svg>
