<svg width="15.892334" height="12.994873" viewBox="0 0 15.8923 12.9949" fill="none" xmlns="http://www.w3.org/2000/svg" xmlns:xlink="http://www.w3.org/1999/xlink">
	<desc>
			Created with Pixso.
	</desc>
	<defs/>
	<path id="Vector" d="M14.2588 3.23853C14.2688 3.38062 14.2688 3.52295 14.2688 3.66504C14.2688 8 10.9915 12.9949 5.00171 12.9949C3.15625 12.9949 1.44189 12.4568 0 11.5229C0.262207 11.5532 0.51416 11.5635 0.786621 11.5635C2.30933 11.5635 3.71094 11.0457 4.83032 10.1624C3.39819 10.1321 2.19824 9.18774 1.78491 7.88843C1.98657 7.9187 2.18823 7.93896 2.3999 7.93896C2.69238 7.93896 2.98486 7.89844 3.25708 7.82739C1.76465 7.52271 0.645264 6.20312 0.645264 4.60913L0.645264 4.5686C1.07886 4.81226 1.58325 4.96436 2.11768 4.98486C1.24023 4.396 0.665527 3.39087 0.665527 2.25366C0.665527 1.64478 0.826904 1.08618 1.10913 0.598877C2.71265 2.58887 5.12256 3.88818 7.8252 4.03052C7.77466 3.78687 7.74438 3.53296 7.74438 3.2793C7.74438 1.47217 9.19653 0 11.0017 0C11.9395 0 12.7864 0.395996 13.3813 1.03564C14.1174 0.893311 14.8235 0.619385 15.4487 0.243652C15.2065 1.00513 14.6924 1.64478 14.0166 2.05078C14.6721 1.97974 15.3074 1.79688 15.8923 1.54321C15.4487 2.19287 14.894 2.77148 14.2588 3.23853Z" fill="#000000" fill-opacity="1.000000" fill-rule="nonzero"/>
</svg>
